<?xml version="1.0" ?><svg viewBox="0 0 54.88 56.06" xmlns="http://www.w3.org/2000/svg"><defs><style>.cls-1{fill:#4d4d4d;}</style></defs><title/><g data-name="Layer 2" id="Layer_2"><g id="icon"><path class="cls-1" d="M11.65,12.18a20.28,20.28,0,0,0-2.21,6.18c-.17.94,1.27,1.35,1.45.4a19,19,0,0,1,2.06-5.82C13.41,12.09,12.12,11.34,11.65,12.18Z"/><path class="cls-1" d="M14.17,14.6a26.76,26.76,0,0,0-1.27,3.65.75.75,0,0,0,1.45.4,24.11,24.11,0,0,1,1.12-3.29C15.84,14.48,14.55,13.71,14.17,14.6Z"/><path class="cls-1" d="M54.87,39.81a.67.67,0,0,0-.32-.68.7.7,0,0,0-.49-.13h-.12c-12,2.8-25.11.69-30.47-11.76C20.29,19.86,21,8,25.3,1.13a.65.65,0,0,0,0-.67A.6.6,0,0,0,24.66,0C15.88.81,6.35,7.35,2.77,15.42-1.53,25.1-1,36.51,5.7,44.9c7,8.7,18.51,12.21,29.35,10.89,8.63-1.05,17.24-7.14,19.75-15.69h0l.06-.17s0,0,0-.06ZM33.22,54.46c-9.53.7-19.37-2.41-25.74-9.77C.78,37,0,26.42,3.69,17.09,6.66,9.47,15.08,3,23.29,1.69c-2,3.91-2.57,8.59-2.92,12.89-.42,5.16,0,10.13,2.44,14.8C28.81,41,41.27,43.12,53,40.73,50.08,48.79,41.53,53.85,33.22,54.46Z"/></g></g></svg>