<?xml version="1.0" ?><svg viewBox="0 0 58.79 58.58" xmlns="http://www.w3.org/2000/svg"><defs><style>.cls-1{fill:#4d4d4d;}</style></defs><title/><g data-name="Layer 2" id="Layer_2"><g id="icon"><path class="cls-1" d="M42.74,15.12A19.51,19.51,0,0,0,30.3,10C19.08,10.14,9.75,17.42,9,28.91S18.18,48.56,29,49c5.25.21,11.06-1,14.67-5.11a23.59,23.59,0,0,0,5.4-15.45C48.84,22.58,47.06,19.07,42.74,15.12Zm-.1,27.7C39.33,46.63,33.87,47.7,29,47.49c-9.75-.42-18.94-7.59-18.54-18,.42-10.92,9.21-17.9,19.82-18a17.94,17.94,0,0,1,11.38,4.68c3.82,3.46,5.74,7,5.92,12.25A22.47,22.47,0,0,1,42.64,42.82Z"/><path class="cls-1" d="M30,6.33q0-2.8,0-5.61a.75.75,0,0,0-1.5,0q.06,2.8,0,5.61A.75.75,0,0,0,30,6.33Z"/><path class="cls-1" d="M49.12,8.68a29.24,29.24,0,0,0-3.93,3.82c-.62.73.43,1.8,1.06,1.06a29.25,29.25,0,0,1,3.93-3.82C50.94,9.13,49.87,8.08,49.12,8.68Z"/><path class="cls-1" d="M58.07,28.64a18.38,18.38,0,0,0-4.88.09c-1,.14-.55,1.59.4,1.45a17,17,0,0,1,4.48,0C59,30.25,59,28.75,58.07,28.64Z"/><path class="cls-1" d="M46.71,45.83c-.73-.63-1.79.43-1.06,1.06a46,46,0,0,1,3.41,3.25c.67.7,1.72-.36,1.06-1.06A46,46,0,0,0,46.71,45.83Z"/><path class="cls-1" d="M28.54,53.34l0,4.51a.75.75,0,0,0,1.5,0l0-4.51A.75.75,0,0,0,28.54,53.34Z"/><path class="cls-1" d="M11.73,46.08q-1.6,1.51-3.26,3c-.73.63.33,1.69,1.06,1.06q1.66-1.44,3.26-3C13.5,46.48,12.44,45.42,11.73,46.08Z"/><path class="cls-1" d="M5.54,28.6q-2.41-.15-4.82-.08a.75.75,0,0,0,0,1.5q2.41-.07,4.82.08C6.51,30.16,6.5,28.66,5.54,28.6Z"/><path class="cls-1" d="M11.53,12.7c.71.66,1.77-.4,1.06-1.06q-1.61-1.5-3.18-3C8.73,7.91,7.67,9,8.36,9.65Q9.93,11.2,11.53,12.7Z"/><path class="cls-1" d="M17.81,18.81a14,14,0,0,0-1.53,4.26c-.17.94,1.27,1.35,1.45.4a12.72,12.72,0,0,1,1.38-3.9C19.57,18.72,18.28,18,17.81,18.81Z"/><path class="cls-1" d="M20.56,20.18a.75.75,0,0,0-1,.27A18.61,18.61,0,0,0,18.64,23a.75.75,0,0,0,1.45.4,16,16,0,0,1,.74-2.18A.78.78,0,0,0,20.56,20.18Z"/></g></g></svg>