<?xml version="1.0" ?><svg viewBox="0 0 58.57 46.71" xmlns="http://www.w3.org/2000/svg"><defs><style>.cls-1{fill:#4d4d4d;}</style></defs><title/><g data-name="Layer 2" id="Layer_2"><g id="icon"><path class="cls-1" d="M49.93,30.84a6.62,6.62,0,0,0-2.14-7.15,6,6,0,0,0-7.64-.37C39.51,15.57,31.4,11.41,24,12.63c-7,1.16-13.44,8.3-11.76,15.44C5.92,25-2.25,31.93.58,39.17c1.66,4.24,6.87,6.16,11,6.71a128.91,128.91,0,0,0,17.84.82c4.62-.08,9.25,0,13.87-.18,3.91-.14,8.58.32,11.85-2.21C61.72,39.18,57.75,29.3,49.93,30.84Zm5.41,11.23c-2.87,3.14-7.21,2.75-11.08,2.9-4.95.19-9.9.13-14.86.22-3.23,0-6.45-.19-9.67-.35-3.39-.17-7,0-10.27-.87C5.27,42.86,1,40.1,1.82,35.2,2.19,33,2.93,31.07,5,29.93c2.67-1.49,5.85-1.64,8.23.57a.75.75,0,0,0,1.18-.91c-3.78-7.63,4.2-15.2,11.4-15.66,6.56-.42,13.2,3.7,12.93,10.86a.76.76,0,0,0,1.28.53c4.49-4,11.32,1.09,7.92,6.31a.76.76,0,0,0,.85,1.1c2.59-1,5.49-.75,7.38,1.54S57,40.21,55.34,42.08Z"/><path class="cls-1" d="M17.95,20.94a14,14,0,0,0-1.53,4.26c-.17.94,1.27,1.35,1.45.4a12.72,12.72,0,0,1,1.38-3.9C19.71,20.85,18.42,20.09,17.95,20.94Z"/><path class="cls-1" d="M20.69,22.31a.75.75,0,0,0-1,.27,18.63,18.63,0,0,0-.89,2.54.75.75,0,0,0,1.45.4A16,16,0,0,1,21,23.34.78.78,0,0,0,20.69,22.31Z"/><path class="cls-1" d="M41.34,16.46c3.18,1.92,8.36,1,11.88.92s6.42-1,5-5C57,9,54,8.45,51.4,10.11c-2-5.39-9.52-6.82-12-.74C38.41,11.84,38.9,15,41.34,16.46Zm-.8-5.74A5.16,5.16,0,0,1,44,7c3.15-.9,5.63,1.77,6.21,4.6a.76.76,0,0,0,1.25.33c1.69-1.51,6.35-.46,5.6,2.42-.42,1.61-2.67,1.52-3.89,1.57-2.67.07-5.71.45-8.34,0Q39.74,15.46,40.54,10.72Z"/><path class="cls-1" d="M11.35,11.27c2.61-.06,8.32,1,9.5-2.36.71-2-.83-3.26-2.52-3.25C19.89-.53,9-2.47,8.05,4.06A3.49,3.49,0,0,0,3.38,7.12C3,11.47,8.36,11.38,11.35,11.27Zm-3-5.38a.75.75,0,0,0,1.13-.65C9.42,3.19,11.79.18,14.31,1.36c1.91.9,3.23,2.92,2.18,5-.34.67.28,1.22,1,1,2.71-.72,2.25,2.25-.49,2.31-.44,0-1.33.07-1.75.08-1.31,0-2.62,0-3.92,0a12,12,0,0,1-4.21-.18C2.93,8.19,6,4.19,8.35,5.9Z"/></g></g></svg>