<svg id="Layer_3" enable-background="new 0 0 64 64" height="512" viewBox="0 0 64 64" width="512" xmlns="http://www.w3.org/2000/svg"><path d="m1 35c0 2.206 1.794 4 4 4h12c1.103 0 2 .897 2 2 0 2.206 1.794 4 4 4h24c2.206 0 4-1.794 4-4s-1.794-4-4-4h-12c-1.103 0-2-.897-2-2h19c6.065 0 11-4.935 11-11s-4.935-11-11-11c-1.388 0-2.764.267-4.053.78-.619-7.15-6.638-12.78-13.947-12.78-6.112 0-11.528 4.042-13.346 9.78-1.148-.513-2.39-.78-3.654-.78-4.962 0-9 4.038-9 9v.062c-3.941.494-7 3.865-7 7.938 0 1.763.572 3.429 1.616 4.807-.975.731-1.616 1.884-1.616 3.193zm34 4h12c1.103 0 2 .897 2 2s-.897 2-2 2h-24c-1.103 0-2-.897-2-2 0-2.206-1.794-4-4-4h-12c-1.103 0-2-.897-2-2s.897-2 2-2h24c1.103 0 2 .897 2 2 0 2.206 1.794 4 4 4zm-32-12c0-3.309 2.691-6 5.961-6.001.313.027.652-.101.858-.334.19-.215.278-.502.242-.787-.035-.288-.061-.58-.061-.878 0-3.86 3.14-7 7-7 1.329 0 2.628.381 3.757 1.101.275.176.621.206.923.08s.523-.393.592-.713c1.18-5.486 6.112-9.468 11.728-9.468 6.617 0 12 5.383 12 12l-.018.332c-.01.363.177.703.489.888s.7.187 1.014.004c1.375-.801 2.937-1.224 4.515-1.224 4.962 0 9 4.038 9 9s-4.038 9-9 9h-19.556c-.694-1.19-1.97-2-3.444-2h-24c-.145 0-.283.028-.424.043-1.015-1.108-1.576-2.528-1.576-4.043z"/><path d="m27 55h-5c-1.103 0-2-.897-2-2 0-2.206-1.794-4-4-4h-11c-2.206 0-4 1.794-4 4s1.794 4 4 4h5c1.103 0 2 .897 2 2 0 2.206 1.794 4 4 4h11c2.206 0 4-1.794 4-4s-1.794-4-4-4zm0 6h-11c-1.103 0-2-.897-2-2 0-2.206-1.794-4-4-4h-5c-1.103 0-2-.897-2-2s.897-2 2-2h11c1.103 0 2 .897 2 2 0 2.206 1.794 4 4 4h5c1.103 0 2 .897 2 2s-.897 2-2 2z"/><path d="m59 55h-5c-1.103 0-2-.897-2-2 0-2.206-1.794-4-4-4h-11c-2.206 0-4 1.794-4 4s1.794 4 4 4h5c1.103 0 2 .897 2 2 0 2.206 1.794 4 4 4h11c2.206 0 4-1.794 4-4s-1.794-4-4-4zm0 6h-11c-1.103 0-2-.897-2-2 0-2.206-1.794-4-4-4h-5c-1.103 0-2-.897-2-2s.897-2 2-2h11c1.103 0 2 .897 2 2 0 2.206 1.794 4 4 4h5c1.103 0 2 .897 2 2s-.897 2-2 2z"/></svg>