<?xml version="1.0" ?><svg viewBox="0 0 58.45 47.79" xmlns="http://www.w3.org/2000/svg"><defs><style>.cls-1{fill:#4d4d4d;}</style></defs><title/><g data-name="Layer 2" id="Layer_2"><g id="icon"><path class="cls-1" d="M36.47,4.16c.18.95,1.63.55,1.45-.4s-.43-2.15-.68-3.22S35.57,0,35.79.94,36.27,3.08,36.47,4.16Z"/><path class="cls-1" d="M48.14,6.2a16.32,16.32,0,0,1,1.68-2.52c.61-.74-.45-1.81-1.06-1.06a18.36,18.36,0,0,0-1.92,2.82C46.38,6.29,47.68,7.05,48.14,6.2Z"/><path class="cls-1" d="M54.08,15.07a9.59,9.59,0,0,1,2.48-.57c1-.08,1-1.58,0-1.5a11.07,11.07,0,0,0-2.88.63C52.79,14,53.17,15.4,54.08,15.07Z"/><path class="cls-1" d="M51.39,25.57A27.41,27.41,0,0,1,53.74,27c.8.55,1.55-.75.76-1.3a27.42,27.42,0,0,0-2.35-1.46C51.3,23.81,50.54,25.11,51.39,25.57Z"/><path class="cls-1" d="M25.47,8.65q1.09.7,2.19,1.37a.75.75,0,0,0,.76-1.3q-1.11-.67-2.19-1.37C25.42,6.83,24.66,8.13,25.47,8.65Z"/><path class="cls-1" d="M49.93,31.92a6.54,6.54,0,0,0-1.18-6.17c2.66-2.9,3.57-7.4,3-11.2-.47-3.14-2.59-5.55-5.22-7.29-6.37-4.2-15.78-.75-18.13,6.34a16,16,0,0,0-4.4.11C17,14.87,10.57,22,12.25,29.15,5.92,26.09-2.25,33,.58,40.25c1.66,4.24,6.87,6.16,11,6.71a128.92,128.92,0,0,0,17.84.82c4.62-.08,9.25,0,13.87-.18,3.91-.14,8.58.32,11.85-2.21C61.72,40.27,57.75,30.38,49.93,31.92ZM45.78,8.56a9.56,9.56,0,0,1,4.57,7c.22,3.06-.53,6.75-2.65,9.13a6,6,0,0,0-7.54-.29c-.47-5.69-5-9.45-10.25-10.56C32.09,7.81,40.3,4.88,45.78,8.56Zm9.56,34.59c-2.87,3.14-7.21,2.75-11.08,2.9-4.95.19-9.9.13-14.86.22-3.23,0-6.45-.19-9.67-.35-3.39-.17-7,0-10.27-.87C5.27,43.94,1,41.18,1.82,36.28,2.19,34.1,2.93,32.15,5,31c2.67-1.49,5.85-1.64,8.23.57a.75.75,0,0,0,1.18-.91c-3.78-7.63,4.2-15.2,11.4-15.66,6.56-.42,13.2,3.7,12.93,10.86a.76.76,0,0,0,1.28.53c4.49-4,11.32,1.09,7.92,6.31a.76.76,0,0,0,.85,1.1c2.59-1,5.49-.75,7.38,1.54S57,41.29,55.34,43.16Z"/><path class="cls-1" d="M17.95,22a14,14,0,0,0-1.53,4.26c-.17.94,1.27,1.35,1.45.4a12.72,12.72,0,0,1,1.38-3.9C19.71,21.93,18.42,21.18,17.95,22Z"/><path class="cls-1" d="M20.69,23.4a.75.75,0,0,0-1,.27,18.61,18.61,0,0,0-.89,2.54.75.75,0,0,0,1.45.4A16,16,0,0,1,21,24.42.78.78,0,0,0,20.69,23.4Z"/></g></g></svg>