<?xml version="1.0" ?><svg viewBox="0 0 58.45 43.98" xmlns="http://www.w3.org/2000/svg"><defs><style>.cls-1{fill:#4d4d4d;}</style></defs><title/><g data-name="Layer 2" id="Layer_2"><g id="icon"><path class="cls-1" d="M49.93,28.11a6.48,6.48,0,0,0-.39-5,9.91,9.91,0,0,0,7.14-6.29.63.63,0,0,0,.05-.14l0-.07s0,0,0,0,0,0,0-.07a.67.67,0,0,0-.33-.68.71.71,0,0,0-.47-.12h-.13c-4.7,1-10,.29-11.84-4.79a12.68,12.68,0,0,1,.81-9.81.68.68,0,0,0,0-.64A.59.59,0,0,0,44.15,0L44,0l-.11,0c-6,.78-9.71,5.7-10.14,11.39A15.86,15.86,0,0,0,24,9.9c-7,1.16-13.44,8.3-11.76,15.44C5.92,22.28-2.25,29.2.58,36.44c1.66,4.24,6.87,6.16,11,6.71A128.92,128.92,0,0,0,29.4,44c4.62-.08,9.25,0,13.87-.18,3.91-.14,8.58.32,11.85-2.21C61.72,36.46,57.75,26.57,49.93,28.11ZM42.85,1.75c-1.38,3.44-1.41,8,.37,11.1,2.5,4.35,7.08,5.26,11.62,4.58a8.82,8.82,0,0,1-6.17,4.4A7.13,7.13,0,0,0,47.8,21a6,6,0,0,0-7.64-.37,11,11,0,0,0-4.89-8.28C35.34,7.52,38.09,3,42.85,1.75Zm12.49,37.6c-2.87,3.14-7.21,2.75-11.08,2.9-4.95.19-9.9.13-14.86.22-3.23,0-6.45-.19-9.67-.35-3.39-.17-7,0-10.27-.87C5.27,40.13,1,37.37,1.82,32.47,2.19,30.29,2.93,28.34,5,27.2c2.67-1.49,5.85-1.64,8.23.57a.75.75,0,0,0,1.18-.91c-3.78-7.63,4.2-15.2,11.4-15.66,6.56-.42,13.2,3.7,12.93,10.86A.76.76,0,0,0,40,22.6c4.49-4,11.32,1.09,7.92,6.31a.76.76,0,0,0,.85,1.1c2.59-1,5.49-.75,7.38,1.54S57,37.48,55.34,39.35Z"/><path class="cls-1" d="M17.95,18.21a14,14,0,0,0-1.53,4.26c-.17.94,1.27,1.35,1.45.4A12.72,12.72,0,0,1,19.25,19C19.71,18.12,18.42,17.37,17.95,18.21Z"/><path class="cls-1" d="M20.69,19.59a.75.75,0,0,0-1,.27,18.62,18.62,0,0,0-.89,2.54.75.75,0,0,0,1.45.4A16,16,0,0,1,21,20.61.78.78,0,0,0,20.69,19.59Z"/></g></g></svg>