<?xml version="1.0" ?><svg viewBox="0 0 58.45 51.01" xmlns="http://www.w3.org/2000/svg"><defs><style>.cls-1{fill:#4d4d4d;}</style></defs><title/><g data-name="Layer 2" id="Layer_2"><g id="icon"><path class="cls-1" d="M21.19,36.48a.65.65,0,0,0,0-.11l0-.11a.59.59,0,0,0-.67-.53.71.71,0,0,0-.58.2c-1.12,1-3.11,2.53-3.16,4.22a2.2,2.2,0,0,0,2.37,2.48C22.09,42.34,21.53,38.63,21.19,36.48ZM19.76,40.7c-.2.32-.88.65-1.24.39s-.23-1.09,0-1.45A6.39,6.39,0,0,1,19.84,38c0,.24,0,.48,0,.71A3.91,3.91,0,0,1,19.76,40.7Z"/><path class="cls-1" d="M30.45,36.48a.65.65,0,0,0,0-.11l0-.11a.59.59,0,0,0-.67-.53.71.71,0,0,0-.58.2C28,37,26.05,38.46,26,40.15a2.2,2.2,0,0,0,2.37,2.48C31.35,42.34,30.79,38.63,30.45,36.48ZM29,40.7c-.2.32-.88.65-1.24.39s-.23-1.09,0-1.45A6.39,6.39,0,0,1,29.1,38c0,.24,0,.48,0,.71A3.91,3.91,0,0,1,29,40.7Z"/><path class="cls-1" d="M14.09,44.74l0-.11a.59.59,0,0,0-.67-.53.71.71,0,0,0-.58.2c-1.12,1-3.11,2.53-3.16,4.22A2.2,2.2,0,0,0,12,51c3-.29,2.42-4,2.07-6.15A.64.64,0,0,0,14.09,44.74Zm-1.41,4.32c-.2.32-.88.65-1.24.39s-.23-1.09,0-1.45a6.39,6.39,0,0,1,1.37-1.64c0,.24,0,.48,0,.71A3.91,3.91,0,0,1,12.68,49.06Z"/><path class="cls-1" d="M24,44.74l0-.11a.59.59,0,0,0-.67-.53.71.71,0,0,0-.58.2c-1.12,1-3.11,2.53-3.16,4.22A2.2,2.2,0,0,0,22,51c3-.29,2.42-4,2.07-6.15A.63.63,0,0,0,24,44.74Zm-1.41,4.32c-.2.32-.88.65-1.24.39s-.23-1.09,0-1.45a6.39,6.39,0,0,1,1.37-1.64c0,.24,0,.48,0,.71A3.91,3.91,0,0,1,22.61,49.06Z"/><path class="cls-1" d="M34,44.74l0-.11a.59.59,0,0,0-.67-.53.71.71,0,0,0-.58.2c-1.12,1-3.11,2.53-3.16,4.22A2.2,2.2,0,0,0,31.9,51c3-.29,2.42-4,2.07-6.15A.63.63,0,0,0,34,44.74Zm-1.41,4.32c-.2.32-.88.65-1.24.39s-.23-1.09,0-1.45a6.39,6.39,0,0,1,1.37-1.64c0,.24,0,.48,0,.71A3.91,3.91,0,0,1,32.55,49.06Z"/><path class="cls-1" d="M11.93,36.48a.65.65,0,0,0,0-.11l0-.11a.59.59,0,0,0-.67-.53.71.71,0,0,0-.58.2c-1.12,1-3.11,2.53-3.16,4.22a2.2,2.2,0,0,0,2.37,2.48C12.83,42.34,12.27,38.63,11.93,36.48ZM9.26,41.08c-.44-.32-.23-1.09,0-1.45A6.39,6.39,0,0,1,10.58,38c0,.24,0,.48,0,.71a3.91,3.91,0,0,1-.12,2C10.3,41,9.62,41.34,9.26,41.08Z"/><path class="cls-1" d="M49,36.37l0-.11a.59.59,0,0,0-.67-.53.71.71,0,0,0-.58.2c-1.12,1-3.11,2.53-3.16,4.22a2.2,2.2,0,0,0,2.37,2.48c3-.29,2.42-4,2.07-6.15A.65.65,0,0,0,49,36.37ZM47.54,40.7c-.2.32-.88.65-1.24.39s-.23-1.09,0-1.45A6.39,6.39,0,0,1,47.62,38c0,.24,0,.48,0,.71A3.91,3.91,0,0,1,47.54,40.7Z"/><path class="cls-1" d="M43.89,44.74l0-.11a.59.59,0,0,0-.67-.53.71.71,0,0,0-.58.2c-1.12,1-3.11,2.53-3.16,4.22A2.2,2.2,0,0,0,41.83,51c3-.29,2.42-4,2.07-6.15A.65.65,0,0,0,43.89,44.74Zm-1.41,4.32c-.2.32-.88.65-1.24.39s-.23-1.09,0-1.45a6.39,6.39,0,0,1,1.37-1.64c0,.24,0,.48,0,.71A3.91,3.91,0,0,1,42.48,49.06Z"/><path class="cls-1" d="M39.71,36.48a.65.65,0,0,0,0-.11l0-.11a.59.59,0,0,0-.67-.53.71.71,0,0,0-.58.2c-1.12,1-3.11,2.53-3.16,4.22a2.2,2.2,0,0,0,2.37,2.48C40.61,42.34,40.05,38.63,39.71,36.48ZM38.28,40.7c-.2.32-.88.65-1.24.39s-.23-1.09,0-1.45A6.39,6.39,0,0,1,38.36,38c0,.24,0,.48,0,.71A3.91,3.91,0,0,1,38.28,40.7Z"/><path class="cls-1" d="M49.93,18.42a6.62,6.62,0,0,0-2.14-7.15,6,6,0,0,0-7.64-.37C39.51,3.15,31.4-1,24,.21c-7,1.16-13.44,8.3-11.76,15.44C5.92,12.59-2.25,19.51.58,26.74c1.66,4.24,6.87,6.16,11,6.71a128.92,128.92,0,0,0,17.84.82c4.62-.08,9.25,0,13.87-.18,3.91-.14,8.58.32,11.85-2.21C61.72,26.76,57.75,16.87,49.93,18.42Zm5.41,11.23c-2.87,3.14-7.21,2.75-11.08,2.9-4.95.19-9.9.13-14.86.22-3.23,0-6.45-.19-9.67-.35-3.39-.17-7,0-10.27-.87C5.27,30.44,1,27.68,1.82,22.78,2.19,20.6,2.93,18.65,5,17.51c2.67-1.49,5.85-1.64,8.23.57a.75.75,0,0,0,1.18-.91C10.59,9.55,18.57,2,25.77,1.52,32.33,1.1,39,5.22,38.69,12.38a.76.76,0,0,0,1.28.53c4.49-4,11.32,1.09,7.92,6.31a.76.76,0,0,0,.85,1.1c2.59-1,5.49-.75,7.38,1.54S57,27.79,55.34,29.65Z"/><path class="cls-1" d="M17.95,8.52a14,14,0,0,0-1.53,4.26c-.17.94,1.27,1.35,1.45.4a12.72,12.72,0,0,1,1.38-3.9C19.71,8.43,18.42,7.67,17.95,8.52Z"/><path class="cls-1" d="M20.69,9.89a.75.75,0,0,0-1,.27,18.61,18.61,0,0,0-.89,2.54.75.75,0,0,0,1.45.4A16,16,0,0,1,21,10.92.78.78,0,0,0,20.69,9.89Z"/></g></g></svg>