<?xml version="1.0" ?><svg viewBox="0 0 51.01 58.61" xmlns="http://www.w3.org/2000/svg"><defs><style>.cls-1{fill:#4d4d4d;}</style></defs><title/><g data-name="Layer 2" id="Layer_2"><g id="icon"><path class="cls-1" d="M50.65,42.94l-6.11-3.53c1.94-.74,3.86-1.52,5.75-2.37.88-.39.12-1.69-.76-1.3q-3.28,1.47-6.66,2.7l-2.81-1.62c1-.46,1.94-.9,2.94-1.31s.5-1.81-.4-1.45q-2.09.86-4.11,1.85L35,33.9l5.2-4a.68.68,0,0,0,0-1.06l-5.23-4.07,3.61-2.09q2,1,4,1.78c.89.37,1.28-1.08.4-1.45s-1.87-.81-2.79-1.24l2.79-1.61c2.21.81,4.4,1.69,6.55,2.66.87.39,1.64-.9.76-1.3-1.86-.83-3.74-1.6-5.64-2.32l6-3.49a.75.75,0,0,0-.76-1.3l-6.1,3.53c.33-2,.62-4.1.83-6.16.1-1-1.4-1-1.5,0q-.36,3.58-1,7.12l-2.8,1.62c.09-1.07.19-2.13.33-3.19s-1.32-1.35-1.45-.4c-.2,1.49-.36,3-.46,4.5l-3.52,2-.9-6.54a.58.58,0,0,0-.34-.48.6.6,0,0,0-.58,0l-6.13,2.49c0-1.39,0-2.78,0-4.17q1.8-1.22,3.52-2.55c.76-.59-.31-1.64-1.06-1.06s-1.63,1.21-2.46,1.79c0-1.07,0-2.15,0-3.22Q29,7.35,31.83,5.28c.78-.56,0-1.86-.76-1.3-1.65,1.19-3.25,2.44-4.83,3.72,0-2.33,0-4.65,0-7a.75.75,0,0,0-1.5,0c0,2.35,0,4.7,0,7.05C23.14,6.47,21.5,5.2,19.82,4c-.78-.57-1.53.74-.76,1.3Q22,7.38,24.74,9.7c0,1.08,0,2.16,0,3.24-.88-.61-1.75-1.23-2.6-1.89s-1.82.47-1.06,1.06q1.79,1.38,3.66,2.64c0,1.35,0,2.71,0,4.06l-6.1-2.48a.59.59,0,0,0-.58,0,.58.58,0,0,0-.34.48l-.92,6.57-3.62-2.08Q13,19.17,12.75,17c-.13-1-1.57-.55-1.45.4s.23,2,.32,3L8.83,18.83q-.6-3.49-1-7c-.1-1-1.6-1-1.5,0,.21,2,.49,4,.81,6l-6-3.48a.75.75,0,0,0-.76,1.3L6.48,19.2c-1.94.74-3.86,1.52-5.75,2.37-.88.4-.12,1.69.76,1.3q3.28-1.47,6.66-2.7l2.81,1.62c-1,.46-1.94.9-2.94,1.31s-.5,1.81.4,1.45q2.09-.86,4.11-1.85l3.52,2-5.2,4a.68.68,0,0,0,0,1.06l5.23,4.07L12.45,36q-2-1-4-1.78c-.89-.37-1.28,1.08-.4,1.45s1.87.81,2.79,1.24L8.09,38.51c-2.21-.81-4.4-1.69-6.55-2.66-.87-.39-1.64.9-.76,1.3,1.86.83,3.74,1.6,5.64,2.32L.38,43a.75.75,0,0,0,.76,1.3l6.1-3.53c-.33,2-.62,4.1-.83,6.16-.1,1,1.4,1,1.5,0q.36-3.58,1-7.12l2.8-1.62c-.09,1.07-.19,2.13-.33,3.19s1.32,1.35,1.45.4c.2-1.49.36-3,.46-4.5l3.52-2,.9,6.54a.58.58,0,0,0,.34.48.6.6,0,0,0,.58,0l6.13-2.49c0,1.39,0,2.78,0,4.17Q23,45.17,21.24,46.5c-.76.59.31,1.64,1.06,1.06s1.63-1.21,2.46-1.79c0,1.07,0,2.15,0,3.22q-2.72,2.27-5.58,4.34c-.78.56,0,1.86.76,1.3,1.65-1.19,3.25-2.44,4.83-3.72,0,2.33,0,4.65,0,7a.75.75,0,0,0,1.5,0c0-2.35,0-4.7,0-7.05,1.61,1.31,3.24,2.58,4.92,3.79.78.57,1.53-.74.76-1.3Q29,51.23,26.27,48.92c0-1.08,0-2.16,0-3.24.88.61,1.75,1.23,2.6,1.89s1.82-.47,1.06-1.06q-1.79-1.38-3.66-2.64c0-1.35,0-2.71,0-4.06l6.1,2.48a.59.59,0,0,0,.58,0,.58.58,0,0,0,.34-.48l.91-6.57,3.62,2.08q.15,2.17.45,4.33c.13,1,1.57.55,1.45-.4s-.23-2-.32-3l2.79,1.61q.6,3.49,1,7c.1,1,1.6,1,1.5,0-.21-2-.49-4-.81-6l6,3.48A.75.75,0,0,0,50.65,42.94ZM38.43,29.32l-4.86,3.78L27,29.31l6.55-3.79ZM32,18.12l.84,6.09L26.26,28c0-2.52,0-5,0-7.57Zm-12.93,0,5.7,2.32c0,2.53,0,5.06,0,7.58L18.2,24.23ZM12.58,29.3l4.86-3.78L24,29.31,17.45,33.1ZM19,40.5l-.84-6.09,6.57-3.8c0,2.52,0,5,0,7.57Zm12.93,0-5.7-2.32c0-2.53,0-5.06,0-7.58l6.56,3.78Z"/></g></g></svg>