<svg id="Capa_1" enable-background="new 0 0 512 512" height="512" viewBox="0 0 512 512" width="512" xmlns="http://www.w3.org/2000/svg"><path d="m24.027 262.28h329.306c4.143 0 7.5-3.358 7.5-7.5s-3.357-7.5-7.5-7.5h-329.306c-4.978 0-9.027-4.05-9.027-9.028s4.05-9.027 9.027-9.027h87.306c4.142 0 7.5-3.358 7.5-7.5s-3.358-7.5-7.5-7.5h-87.306c-13.248-.001-24.027 10.778-24.027 24.027s10.779 24.028 24.027 24.028z"/><path d="m512 185.415c0-42.383-34.481-76.864-76.865-76.864-28.754 0-54.88 15.847-68.182 41.356-2.969 5.691-3.543 12.197-1.617 18.319s6.12 11.128 11.812 14.096c11.75 6.128 26.288 1.553 32.414-10.194 4.992-9.574 14.792-15.522 25.573-15.522 15.886 0 28.811 12.924 28.811 28.81s-12.925 28.81-28.811 28.81h-289.802c-4.142 0-7.5 3.358-7.5 7.5s3.358 7.5 7.5 7.5h289.801c24.157 0 43.811-19.653 43.811-43.81s-19.653-43.81-43.811-43.81c-16.392 0-31.287 9.038-38.874 23.586-2.302 4.414-7.766 6.13-12.178 3.831-2.139-1.115-3.715-2.996-4.438-5.296s-.507-4.744.608-6.882c10.709-20.536 31.738-33.292 54.882-33.292 34.112 0 61.865 27.752 61.865 61.864s-27.753 61.865-61.865 61.865h-47.801c-4.143 0-7.5 3.358-7.5 7.5s3.357 7.5 7.5 7.5h47.801c42.385-.002 76.866-34.484 76.866-76.867z"/><path d="m285.988 286.325h-261.961c-13.248 0-24.027 10.779-24.027 24.027 0 13.249 10.779 24.028 24.027 24.028h261.961c15.886 0 28.81 12.924 28.81 28.81 0 15.885-12.924 28.809-28.81 28.809-10.781 0-20.581-5.948-25.574-15.521-2.967-5.691-7.973-9.885-14.095-11.811-6.121-1.924-12.628-1.351-18.319 1.616-5.69 2.968-9.885 7.974-11.811 14.096-1.926 6.123-1.352 12.628 1.616 18.319 13.302 25.51 39.428 41.357 68.183 41.357 42.383 0 76.864-34.481 76.864-76.864s-34.481-76.866-76.864-76.866zm0 138.729c-23.145 0-44.174-12.757-54.883-33.293-1.115-2.138-1.331-4.582-.607-6.882s2.299-4.181 4.438-5.296c1.308-.682 2.73-1.028 4.165-1.028.91 0 1.825.14 2.718.42 2.3.723 4.181 2.299 5.296 4.438 7.587 14.548 22.483 23.585 38.874 23.585 24.156 0 43.81-19.653 43.81-43.809 0-24.157-19.653-43.81-43.81-43.81h-261.962c-4.978 0-9.027-4.05-9.027-9.028s4.05-9.027 9.027-9.027h261.961c34.112 0 61.864 27.752 61.864 61.865s-27.751 61.865-61.864 61.865z"/><path d="m451 284.463c-4.143 0-7.5 3.358-7.5 7.5s3.357 7.5 7.5 7.5h.104c4.143 0 7.5-3.358 7.5-7.5s-3.357-7.5-7.5-7.5z"/><path d="m189.052 406.802h-.104c-4.142 0-7.5 3.358-7.5 7.5s3.358 7.5 7.5 7.5h.104c4.142 0 7.5-3.358 7.5-7.5s-3.358-7.5-7.5-7.5z"/><path d="m312.896 177.802h.104c4.143 0 7.5-3.358 7.5-7.5s-3.357-7.5-7.5-7.5h-.104c-4.143 0-7.5 3.358-7.5 7.5s3.358 7.5 7.5 7.5z"/><path d="m156.948 95.802h.104c4.142 0 7.5-3.358 7.5-7.5s-3.358-7.5-7.5-7.5h-.104c-4.142 0-7.5 3.358-7.5 7.5s3.358 7.5 7.5 7.5z"/><path d="m196.5 373.302c0-4.142-3.358-7.5-7.5-7.5h-118c-4.142 0-7.5 3.358-7.5 7.5s3.358 7.5 7.5 7.5h118c4.142 0 7.5-3.358 7.5-7.5z"/><path d="m185.504 173.431c.435 0 .876-.038 1.32-.117 9.107-1.617 17.527-5.047 25.127-9.414 7.301 2.667 14.926 3.984 22.519 3.984 17.227 0 34.268-6.689 46.856-19.278 19.198-19.198 24.676-48.748 13.631-73.53-.754-1.691-2.106-3.043-3.798-3.797-24.781-11.044-54.331-5.567-73.53 13.632-17.664 17.664-23.702 44.088-15.953 67.502-5.453 2.844-11.304 5.038-17.475 6.134-4.079.724-6.798 4.617-6.073 8.695.645 3.634 3.808 6.189 7.376 6.189zm42.732-77.915c14.147-14.147 35.565-18.655 54.126-11.644 7.012 18.561 2.504 39.98-11.644 54.127-11.302 11.303-27.247 16.444-42.668 14.483 16.821-14.271 26.914-30.468 27.595-31.578 2.165-3.528 1.06-8.139-2.466-10.307-3.524-2.169-8.143-1.067-10.315 2.456-.161.261-10.933 17.471-28.056 30.825-4.199-17.095.725-35.659 13.428-48.362z"/><path d="m101 133.802h56.052c4.142 0 7.5-3.358 7.5-7.5s-3.358-7.5-7.5-7.5h-56.052c-4.142 0-7.5 3.358-7.5 7.5s3.358 7.5 7.5 7.5z"/><path d="m333 90.532h111c4.143 0 7.5-3.358 7.5-7.5s-3.357-7.5-7.5-7.5h-111c-4.143 0-7.5 3.358-7.5 7.5s3.357 7.5 7.5 7.5z"/><path d="m422.081 333.996c-1.115-6.049-1.492-12.286-.725-18.506.507-4.111-2.414-7.854-6.525-8.361-4.1-.509-7.854 2.414-8.361 6.525-1.132 9.175-.325 18.224 1.612 26.769-11.057 14.517-15.621 32.857-12.529 51.008.696 4.083 4.563 6.831 8.653 6.134 4.083-.695 6.829-4.569 6.134-8.653-1.746-10.255-.321-20.584 3.902-29.785 8.695 20.3 21.223 34.739 22.084 35.717 1.482 1.683 3.549 2.542 5.627 2.542 1.759 0 3.525-.616 4.95-1.868 3.108-2.732 3.414-7.47.686-10.582-.202-.231-13.483-15.587-21.212-35.88 17.569 1.013 33.869 11.177 42.276 27.054 9.362 17.682 7.372 39.479-4.787 55.158-14.965.952-29.828-4.826-40.208-15.757-2.853-3.004-7.601-3.126-10.603-.274-3.004 2.852-3.127 7.599-.274 10.603 12.482 13.145 29.958 20.527 47.92 20.527 2.617 0 5.246-.157 7.871-.476 1.838-.223 3.528-1.118 4.745-2.513 17.845-20.439 21.297-50.293 8.592-74.289-11.69-22.074-35.169-35.615-59.828-35.093z"/></svg>